<mxfile host="65bd71144e">
    <diagram id="MIYCC5yEpVgQ4qmNMkEV" name="Page-1">
        <mxGraphModel dx="1090" dy="571" grid="1" gridSize="10" guides="1" tooltips="1" connect="1" arrows="1" fold="1" page="1" pageScale="1" pageWidth="850" pageHeight="1100" math="0" shadow="0">
            <root>
                <mxCell id="0"/>
                <mxCell id="1" parent="0"/>
                <mxCell id="7" style="edgeStyle=orthogonalEdgeStyle;html=1;exitX=0.5;exitY=1;exitDx=0;exitDy=0;entryX=0.5;entryY=0;entryDx=0;entryDy=0;" edge="1" parent="1" source="2" target="3">
                    <mxGeometry relative="1" as="geometry"/>
                </mxCell>
                <mxCell id="2" value="welcome" style="ellipse;whiteSpace=wrap;html=1;fillColor=#66FFFF;fontColor=#000000;" vertex="1" parent="1">
                    <mxGeometry x="350" y="20" width="120" height="80" as="geometry"/>
                </mxCell>
                <mxCell id="8" value="1" style="edgeStyle=orthogonalEdgeStyle;html=1;exitX=0;exitY=0.5;exitDx=0;exitDy=0;entryX=1;entryY=0.5;entryDx=0;entryDy=0;" edge="1" parent="1" source="3" target="4">
                    <mxGeometry relative="1" as="geometry"/>
                </mxCell>
                <mxCell id="9" value="2" style="edgeStyle=orthogonalEdgeStyle;html=1;exitX=0.5;exitY=1;exitDx=0;exitDy=0;entryX=0.5;entryY=0;entryDx=0;entryDy=0;" edge="1" parent="1" source="3" target="5">
                    <mxGeometry relative="1" as="geometry"/>
                </mxCell>
                <mxCell id="11" value="3" style="edgeStyle=orthogonalEdgeStyle;html=1;exitX=1;exitY=0.5;exitDx=0;exitDy=0;entryX=0;entryY=0.5;entryDx=0;entryDy=0;" edge="1" parent="1" source="3" target="10">
                    <mxGeometry relative="1" as="geometry"/>
                </mxCell>
                <mxCell id="3" value="main_menu" style="rhombus;whiteSpace=wrap;html=1;fillColor=#4C0099;" vertex="1" parent="1">
                    <mxGeometry x="370" y="140" width="80" height="80" as="geometry"/>
                </mxCell>
                <mxCell id="12" value="2" style="edgeStyle=orthogonalEdgeStyle;html=1;exitX=0.5;exitY=0;exitDx=0;exitDy=0;entryX=0.5;entryY=0;entryDx=0;entryDy=0;" edge="1" parent="1" source="4" target="3">
                    <mxGeometry relative="1" as="geometry">
                        <Array as="points">
                            <mxPoint x="240" y="120"/>
                            <mxPoint x="410" y="120"/>
                        </Array>
                    </mxGeometry>
                </mxCell>
                <mxCell id="13" value="1" style="edgeStyle=orthogonalEdgeStyle;html=1;exitX=0;exitY=0.5;exitDx=0;exitDy=0;entryX=0.5;entryY=0;entryDx=0;entryDy=0;" edge="1" parent="1" source="4" target="6">
                    <mxGeometry relative="1" as="geometry"/>
                </mxCell>
                <mxCell id="4" value="all_pets" style="rhombus;whiteSpace=wrap;html=1;fillColor=#4C0099;" vertex="1" parent="1">
                    <mxGeometry x="200" y="140" width="80" height="80" as="geometry"/>
                </mxCell>
                <mxCell id="5" value="add_pet" style="rhombus;whiteSpace=wrap;html=1;fillColor=#4C0099;" vertex="1" parent="1">
                    <mxGeometry x="370" y="260" width="80" height="80" as="geometry"/>
                </mxCell>
                <mxCell id="16" style="edgeStyle=orthogonalEdgeStyle;html=1;exitX=1;exitY=0.5;exitDx=0;exitDy=0;entryX=0;entryY=0.5;entryDx=0;entryDy=0;" edge="1" parent="1" source="6" target="15">
                    <mxGeometry relative="1" as="geometry"/>
                </mxCell>
                <mxCell id="17" style="edgeStyle=orthogonalEdgeStyle;html=1;exitX=0.5;exitY=1;exitDx=0;exitDy=0;entryX=0.5;entryY=0;entryDx=0;entryDy=0;" edge="1" parent="1" source="6" target="14">
                    <mxGeometry relative="1" as="geometry"/>
                </mxCell>
                <mxCell id="18" style="edgeStyle=orthogonalEdgeStyle;html=1;exitX=0;exitY=0.5;exitDx=0;exitDy=0;entryX=0.5;entryY=0;entryDx=0;entryDy=0;" edge="1" parent="1" source="6" target="3">
                    <mxGeometry relative="1" as="geometry">
                        <Array as="points">
                            <mxPoint x="100" y="300"/>
                            <mxPoint x="100" y="110"/>
                            <mxPoint x="410" y="110"/>
                        </Array>
                    </mxGeometry>
                </mxCell>
                <mxCell id="6" value="pet_submenu" style="rhombus;whiteSpace=wrap;html=1;fillColor=#4C0099;" vertex="1" parent="1">
                    <mxGeometry x="110" y="260" width="80" height="80" as="geometry"/>
                </mxCell>
                <mxCell id="10" value="exit" style="shape=parallelogram;perimeter=parallelogramPerimeter;whiteSpace=wrap;html=1;fixedSize=1;fillColor=#006600;" vertex="1" parent="1">
                    <mxGeometry x="510" y="150" width="120" height="60" as="geometry"/>
                </mxCell>
                <mxCell id="14" value="" style="rhombus;whiteSpace=wrap;html=1;fillColor=#4C0099;" vertex="1" parent="1">
                    <mxGeometry x="110" y="390" width="80" height="80" as="geometry"/>
                </mxCell>
                <mxCell id="15" value="" style="rhombus;whiteSpace=wrap;html=1;fillColor=#4C0099;" vertex="1" parent="1">
                    <mxGeometry x="230" y="260" width="80" height="80" as="geometry"/>
                </mxCell>
            </root>
        </mxGraphModel>
    </diagram>
</mxfile>